# xmcd CD database file
#
# Track frame offsets:
#	150
#	15316
#	30085
#	44887
#	57782
#	72614
#	85076
#	99806
#	114924
#	129816
#	145287
#	159249
#	173939
#	187351
#	201733
#	214780
#	227030
#	241422
#	250904
#
# Disc length: 3531 seconds
#
# Revision: 0
# Processed by: cddbd v1.4PL0 Copyright (c) Steve Scherf et al.
# Submitted via: CDex 1.40Release
#
DISCID=060dc913
DTITLE=Billie Holiday - The Chronical 1949 - 1951
DYEAR=2002
DGENRE=Blues
TTITLE0='Tain't Nobody's Business If I Do
TTITLE1=Baby Get Lost
TTITLE2=Keeps On Raining
TTITLE3=Them There Eyes
TTITLE4=Do Your Duty
TTITLE5=Gimme A Pigfoot And A Bottle Of Beer
TTITLE6=You Can't Loose A Broken Heart
TTITLE7=My Sweet Hunk O'Trash
TTITLE8=Now Or Never
TTITLE9=You're My Thrill
TTITLE10=Crazy He Calls Me
TTITLE11=Please Tell Me Now
TTITLE12=Somebody's On My Mind
TTITLE13=God Bless The Child
TTITLE14=This Is Heaven To Me
TTITLE15=Be Fair To Me
TTITLE16=Rocky Mountain Blues
TTITLE17=Blue Turning Grey Over You
TTITLE18=Detour Ahead
EXTD=YEAR: 2002 ID3G: 0
EXTT0=
EXTT1=
EXTT2=
EXTT3=
EXTT4=
EXTT5=
EXTT6=
EXTT7=
EXTT8=
EXTT9=
EXTT10=
EXTT11=
EXTT12=
EXTT13=
EXTT14=
EXTT15=
EXTT16=
EXTT17=
EXTT18=
PLAYORDER=
